<svg width="1728" height="403" viewBox="0 0 1728 403" fill="none" xmlns="http://www.w3.org/2000/svg">
<path d="M93.4659 309.111C78.7928 309.111 65.5266 306.598 53.6675 301.573C42.0094 296.548 32.7633 289.312 25.9293 279.865C19.0952 270.418 15.5777 259.262 15.3766 246.398H60.6021C61.2051 255.041 64.2201 261.875 69.6472 266.9C75.2752 271.925 82.9133 274.438 92.5614 274.438C102.41 274.438 110.149 272.126 115.777 267.503C121.405 262.679 124.219 256.448 124.219 248.81C124.219 242.579 122.31 237.453 118.491 233.433C114.672 229.413 109.848 226.298 104.019 224.087C98.3904 221.675 90.5514 219.062 80.5013 216.248C66.8331 212.228 55.6775 208.308 47.0345 204.489C38.5924 200.469 31.2558 194.539 25.0247 186.7C18.9947 178.66 15.9797 168.007 15.9797 154.741C15.9797 142.279 19.0952 131.425 25.3262 122.179C31.5573 112.933 40.3009 105.898 51.557 101.074C62.8131 96.0485 75.6772 93.5359 90.1494 93.5359C111.858 93.5359 129.445 98.8625 142.912 109.516C156.581 119.968 164.118 134.641 165.525 153.535H119.094C118.692 146.299 115.576 140.369 109.747 135.746C104.119 130.922 96.5814 128.51 87.1343 128.51C78.8933 128.51 72.2602 130.621 67.2351 134.842C62.4111 139.063 59.9991 145.193 59.9991 153.234C59.9991 158.862 61.8081 163.585 65.4261 167.404C69.2452 171.022 73.8682 174.037 79.2953 176.449C84.9233 178.66 92.7624 181.273 102.812 184.288C116.481 188.308 127.636 192.328 136.279 196.348C144.922 200.368 152.359 206.399 158.591 214.439C164.822 222.479 167.937 233.031 167.937 246.096C167.937 257.353 165.023 267.805 159.194 277.453C153.364 287.101 144.822 294.839 133.566 300.668C122.31 306.296 108.943 309.111 93.4659 309.111ZM341.716 96.551V130.621H285.636V307H243.426V130.621H187.346V96.551H341.716ZM533.818 96.551L462.663 233.735V307H420.453V233.735L348.997 96.551H396.634L441.86 192.73L486.784 96.551H533.818ZM594.342 273.533H663.688V307H552.132V96.551H594.342V273.533Z" fill="white"/>
<path d="M1099.22 96.551V307H1057.01V170.118L1000.62 307H968.665L911.982 170.118V307H869.772V96.551H917.711L984.645 253.031L1051.58 96.551H1099.22ZM1302.25 96.551L1231.1 233.735V307H1188.89V233.735L1117.43 96.551H1165.07L1210.29 192.73L1255.22 96.551H1302.25Z" fill="white"/>
<path d="M1503.66 96.2495V113.737H1410.8V192.429H1489.19V209.916H1410.8V307H1389.69V96.2495H1503.66ZM1553.46 96.2495V307H1532.36V96.2495H1553.46ZM1718.54 96.2495V113.737H1660.05V307H1638.94V113.737H1580.15V96.2495H1718.54Z" fill="#D38436"/>
<rect x="841.034" y="305.47" width="150.751" height="39.6714" transform="rotate(-180 841.034 305.47)" fill="#D38436"/>
<rect x="785.494" y="218.193" width="95.2114" height="39.6714" transform="rotate(-180 785.494 218.193)" fill="#D38436"/>
<rect x="841.034" y="134.883" width="150.751" height="39.6714" transform="rotate(-180 841.034 134.883)" fill="#D38436"/>
</svg>
